<svg width="117" height="50" viewBox="0 0 117 50" fill="none" xmlns="http://www.w3.org/2000/svg">
<g id="CD_Projekt_logo 1" clip-path="url(#clip0_21_33)">
<g id="g10">
<g id="g60">
<g id="g62">
<g id="g68">
<path id="path70" d="M8.46801 44.5511C9.19146 43.7729 10.0419 42.8942 10.5496 42.481C10.4069 42.4687 10.1815 42.441 9.93688 42.4041C9.40758 42.8863 8.73244 43.5907 8.12759 44.2367C7.3611 45.0636 6.72945 45.786 6.72945 45.7895C6.71979 45.7956 6.71627 45.8084 6.70617 45.8172C6.20542 45.955 5.35547 46.1887 4.79015 46.3428C3.95206 46.5751 3.20005 46.518 3.20005 47.0661C3.20005 47.0661 2.33253 47.5311 2.53547 48.2245C2.53547 48.2245 4.27579 46.8347 5.76485 46.5993C5.76485 46.5993 4.85516 47.1908 4.93774 47.9927C4.93774 47.9927 6.16369 46.1588 7.59522 47.2707C7.59522 47.2707 6.95742 46.4043 7.22317 45.9274C7.45202 45.6678 7.92598 45.1347 8.46801 44.5511ZM5.71126 22.8974C5.63615 22.9308 5.55796 22.9431 5.47758 22.9431C5.22369 22.9431 4.98562 22.7894 4.88239 22.5377C4.87317 22.5171 4.86131 22.4925 4.85692 22.4666L4.66804 22.5294C4.82705 22.9922 5.30496 23.2456 5.7363 23.0963C5.8448 23.0572 5.94187 22.9997 6.01698 22.9259C6.25418 22.7028 6.35038 22.3401 6.23222 21.9954L5.79911 22.1434C5.82635 22.207 5.8448 22.276 5.8448 22.3498C5.8448 22.4139 5.83382 22.4718 5.80834 22.5272L6.006 22.6475C5.97174 22.6993 5.92957 22.7511 5.87906 22.7942C5.83382 22.8372 5.77583 22.8715 5.71126 22.8974ZM23.2493 21.493L14.6896 23.5802V23.571L14.6922 23.5802L31.4115 16.3476L17.6326 18.0347L25.0081 12.6486L17.1046 15.7336L18.2981 13.339L12.6444 17.4103L12.5966 17.3242L20.612 0L7.57765 15.4236L7.49639 7.01444L2.7138 18.2543L2.46518 14.941L0.109032 23.5631L0.113425 23.5605V23.5631C0.113425 23.5631 0.431004 23.3282 0.857958 23.1995C0.89222 23.1903 0.926921 23.1815 0.961183 23.1718C0.965575 23.1718 0.969968 23.1683 0.9748 23.1683C1.0095 23.1609 1.04376 23.1525 1.07802 23.1473C1.08242 23.1473 1.08769 23.1433 1.09428 23.1433C1.12942 23.1372 1.16324 23.1323 1.20277 23.1301V23.1262C1.23967 23.1231 1.27569 23.1213 1.31039 23.1183H1.33279C1.36749 23.1152 1.40483 23.1152 1.44392 23.1183C1.44612 23.1183 1.44831 23.1183 1.45666 23.1213C1.48916 23.1213 1.52123 23.1231 1.55593 23.1301C1.56252 23.1323 1.56691 23.1323 1.57438 23.1323C1.61172 23.1372 1.64554 23.1433 1.68024 23.1525C1.68946 23.1525 1.69869 23.1556 1.70308 23.1578C1.7391 23.167 1.776 23.1767 1.81553 23.1903C2.62156 23.4819 3.30723 23.1903 3.30723 23.1903C3.30723 23.1903 4.06626 23.6773 4.06626 24.0861H4.0645V24.0879C4.0645 24.0879 3.06564 24.1463 3.06564 23.7041C3.06564 23.7041 1.7883 23.2505 0.000976562 23.9127L3.77021 25.5331C3.76801 25.5156 3.56903 24.8142 3.7869 24.5701C3.85586 24.4858 3.97709 24.4563 4.16597 24.5205C4.23493 24.545 4.28501 24.5389 4.3162 24.5086C4.60918 24.2065 3.18776 21.5821 3.18776 21.5821C3.18776 21.5821 1.91129 21.4583 0.807005 22.6133C0.73365 22.6897 0.65722 22.7718 0.5865 22.8618V22.8579V22.8618C0.699388 22.6651 1.05738 22.0946 1.65476 21.6006C2.01275 21.3002 2.46079 21.031 2.99448 20.8791C3.14076 20.5282 2.95495 20.7566 3.25672 20.5721C3.25891 20.5721 3.25891 20.569 3.25891 20.569C3.40079 19.6438 3.92482 17.2605 5.73235 15.222C5.85358 15.0868 5.97833 14.9502 6.11098 14.8207C6.11098 14.8207 5.64801 15.6915 5.64801 16.2971C5.66119 16.2817 6.11845 15.5957 6.75054 14.9682V14.9656C6.75054 14.9656 6.74307 14.9757 6.73384 14.9928C6.61656 15.244 5.75475 17.0831 5.8448 17.6202C5.84743 17.625 5.84919 17.6281 5.84919 17.6334L7.59127 16.0375C7.59127 16.0375 7.58643 16.0406 7.5838 16.0424C7.53328 16.1113 5.94802 18.2543 5.79165 18.989V18.9938L8.42936 17.1103L8.42673 17.1134C8.41794 17.1288 8.09465 17.5798 7.95848 17.827C7.86185 18.004 7.84779 18.0637 7.84779 18.0822L7.85218 18.0962L9.27229 17.4876C9.27229 17.4876 9.21079 17.5613 9.11152 17.6689L8.5831 18.206L8.45264 18.3439L7.49199 19.3144L7.47399 19.3368L6.74307 20.0794L6.27439 20.5567C6.27439 20.5567 5.89092 20.9559 5.8448 21.1628C5.79911 21.3661 6.01523 21.4917 6.01523 21.4917H6.01259C6.20806 21.6006 6.36575 21.7692 6.45843 21.9708C6.50939 22.0929 6.53838 22.2255 6.53838 22.3682C6.53838 22.6475 6.42373 22.9009 6.23222 23.084C6.04466 23.2685 5.78023 23.3835 5.489 23.3835C5.22369 23.3835 4.98825 23.2873 4.80421 23.1336C4.83627 23.1767 5.35547 23.8292 6.30865 23.322L7.48672 22.4635L7.53768 22.4235L8.75529 21.5334C9.04256 21.8724 9.31402 22.2808 9.55956 22.7441C8.83611 23.4314 7.60225 24.6237 6.37014 25.9275C5.63615 26.7026 4.90348 27.522 4.27798 28.2958L4.71723 26.2322L4.75369 26.0618C4.75369 26.0618 4.75194 26.0618 4.75194 26.0649C4.7471 26.0671 4.74447 26.0671 4.74095 26.0702C4.74095 26.0719 4.73524 26.075 4.73524 26.075C4.73085 26.0772 4.72602 26.0772 4.72338 26.0842C4.72119 26.0842 4.71723 26.086 4.71723 26.0908C4.7124 26.0935 4.70494 26.0965 4.70098 26.0996C4.69835 26.1014 4.69659 26.108 4.68912 26.1093C4.68473 26.1119 4.67814 26.1185 4.67199 26.1203C4.66804 26.1264 4.66408 26.129 4.65706 26.1339C4.65223 26.1387 4.64871 26.144 4.63861 26.1462C4.63202 26.1532 4.62763 26.1598 4.62016 26.1633C4.61401 26.1686 4.60654 26.1769 4.59908 26.1782C4.59337 26.1874 4.5859 26.1953 4.57975 26.198C4.56965 26.2046 4.56306 26.2129 4.55383 26.2191C4.5468 26.2239 4.54022 26.2322 4.53407 26.2393C4.5244 26.2472 4.51254 26.2533 4.50595 26.2643C4.49409 26.2687 4.4897 26.2766 4.47828 26.2814C4.47125 26.2928 4.45983 26.3012 4.44797 26.3113C4.44182 26.3187 4.42952 26.3271 4.42294 26.3359C4.41108 26.3455 4.39746 26.3565 4.38823 26.3688C4.37901 26.3772 4.37286 26.3851 4.36056 26.3912C4.35178 26.4048 4.3386 26.418 4.32191 26.4303C4.31268 26.4378 4.30565 26.4439 4.29907 26.4527C4.2916 26.4601 4.28281 26.4681 4.27315 26.4755C4.27315 26.4786 4.27139 26.4786 4.27139 26.4786C4.25821 26.4909 4.24372 26.5067 4.2301 26.5216C4.21824 26.5291 4.20902 26.5414 4.20067 26.5524C4.18398 26.5647 4.17212 26.5787 4.1585 26.5919C4.14708 26.6029 4.13522 26.6165 4.12424 26.6261C4.11502 26.6402 4.10316 26.6507 4.09701 26.6595C4.09218 26.663 4.08603 26.6696 4.08076 26.6749C4.08076 26.6766 4.07636 26.6802 4.07109 26.685C4.06275 26.6938 4.05528 26.7012 4.04606 26.7109C4.03464 26.7245 4.02321 26.7355 4.01179 26.7491C4.00916 26.7539 4.0074 26.7579 4.00257 26.7588C3.99774 26.764 3.99379 26.7662 3.98895 26.7715C3.9828 26.7825 3.9749 26.7904 3.96567 26.7983C3.95206 26.8181 3.93844 26.833 3.91999 26.8488C3.90813 26.8659 3.89407 26.8782 3.88309 26.8958C3.86948 26.9129 3.85103 26.9314 3.83697 26.9472C3.82335 26.9643 3.81062 26.9779 3.79744 26.995C3.77987 27.0143 3.76625 27.0345 3.7478 27.0539C3.73594 27.0692 3.72189 27.0851 3.70695 27.1035C3.69246 27.1246 3.6762 27.143 3.65776 27.1676C3.64414 27.1799 3.63272 27.1988 3.61822 27.2142C3.60109 27.2401 3.5822 27.262 3.56376 27.2871C3.5497 27.3055 3.53828 27.3178 3.52906 27.334C3.50665 27.3639 3.48293 27.3933 3.46009 27.4228C3.45306 27.4346 3.4412 27.4482 3.43506 27.4592C3.40299 27.5036 3.36873 27.5483 3.33798 27.5949L3.33403 27.6002C3.30328 27.645 3.27121 27.6893 3.24178 27.7345C3.23432 27.7477 3.22465 27.7631 3.21499 27.7771C3.19391 27.8114 3.16931 27.8461 3.14603 27.8825C3.13373 27.8997 3.12494 27.9168 3.11133 27.9339C3.09068 27.9686 3.0696 27.9993 3.04676 28.0336C3.0349 28.0547 3.02391 28.0731 3.01293 28.092C2.99448 28.1267 2.9712 28.1618 2.9488 28.1961C2.93914 28.2172 2.92552 28.2374 2.91454 28.2593C2.89346 28.294 2.87501 28.33 2.85173 28.3647C2.83987 28.3832 2.82669 28.4078 2.81483 28.4288C2.79375 28.4692 2.7731 28.5039 2.75202 28.5408C2.74235 28.5615 2.72962 28.5847 2.71863 28.6084C2.62156 28.7867 2.52756 28.9712 2.43092 29.1705V29.1741L1.94599 29.2553C2.04306 29.0059 2.13926 28.7793 2.24292 28.5645L1.45227 29.6773L2.24292 29.6C1.56691 31.1533 1.071 33.1861 1.071 36.0809L1.7145 35.6738C2.28202 38.905 4.94652 40.3252 4.94652 40.3252L4.94213 40.305C6.40968 41.2654 8.19656 41.9373 10.1657 42.2034C10.4389 42.2381 10.6603 42.2583 10.7104 42.2632C10.7122 42.2632 10.7122 42.2632 10.7122 42.2619C10.7477 42.2662 10.7794 42.2724 10.8136 42.2724C11.8801 42.3655 12.9159 42.3273 13.9064 42.1824C13.9038 42.2201 13.9016 42.2583 13.9016 42.2965C13.9016 42.9364 14.2574 43.4629 14.7107 43.5064C13.7799 45.0895 13.0257 47.1921 13.0235 47.2018C12.9875 47.2984 12.9133 47.4776 12.8381 47.5311C12.6089 47.583 12.5904 47.5944 12.3365 47.6734L12.3405 47.6703C12.2548 47.5869 11.5195 47.4495 10.7706 47.7305C10.7723 47.734 10.7723 47.734 10.7767 47.738C10.3528 47.9237 9.94039 48.2632 9.65444 48.8257C9.95884 48.5798 10.5268 48.1802 10.9893 48.2355C10.4416 48.5473 9.49543 49.1428 9.38737 50C9.38737 50 12.6721 47.6958 14.2916 48.1209C14.2916 48.1209 14.0557 48.3888 14.6136 49.3839L14.8684 48.4582C15.16 47.5601 14.0351 47.4279 13.562 47.4086C13.5642 47.402 13.5642 47.399 13.5642 47.3976C13.5642 47.3976 13.6165 47.2536 13.7083 47.0156C13.9872 46.2963 14.6364 44.7061 15.3472 43.5709C15.3599 43.5472 15.3691 43.5218 15.3766 43.4985L15.2435 43.3154C15.2448 43.3154 15.3397 43.2117 15.3906 43.1353C15.4846 42.9864 15.6155 42.7339 15.6177 42.3997C15.6177 42.1376 15.5536 41.8069 15.3669 41.3959L15.7877 41.2009C15.8106 41.2545 15.833 41.3041 15.8554 41.3519C15.8615 41.3704 15.8677 41.3866 15.8729 41.4007C15.8861 41.4349 15.8997 41.4696 15.9112 41.5039C15.9182 41.5193 15.9243 41.5386 15.9305 41.5557C15.9419 41.593 15.9524 41.6277 15.9647 41.662C15.9674 41.6725 15.974 41.6866 15.9766 41.6989L18.3806 40.973L17.8478 40.5343H17.8443L17.8206 40.5105L17.8083 40.5013L8.71575 32.2226C8.71839 32.2226 8.72102 32.227 8.72102 32.227L8.71839 32.2226C11.2463 33.4518 14.195 34.8807 19.1968 37.1976C24.1243 39.4685 27.2443 40.7912 28.8537 41.4503C28.8674 41.4591 28.8823 41.4648 28.8933 41.4696H28.8959C29.1296 41.5658 29.3303 41.6462 29.4994 41.7151C29.8438 41.8499 30.1667 41.9747 30.1842 41.9826C30.2115 41.9672 30.244 41.9588 30.2717 41.9444L11.8889 29.3396L23.2493 21.493ZM10.5268 25.3781L7.78629 27.4623L9.75327 23.1372V23.1336C10.066 23.7967 10.3287 24.5547 10.5294 25.3781H10.5268ZM20.3125 40.2897L20.381 40.6186H20.3792L23.5823 42.5073L24.3927 42.9781L23.9495 41.8381C26.592 42.6171 28.7439 42.6606 30.175 41.9865C30.175 41.9865 30.1733 41.9865 30.1733 41.9874C27.6823 42.7234 21.5055 40.6427 20.3125 40.2897Z" fill="#DC0D15"/>
</g>
<g id="g72">
<path id="path74" d="M3.06511 23.7041C3.06511 24.1463 4.06397 24.0879 4.06397 24.0879C4.06397 23.6812 3.30626 23.192 3.30626 23.192C3.30626 23.192 2.62102 23.4819 1.8106 23.192C1.48599 23.0748 1.14645 23.113 0.857422 23.2013C0.473515 23.4573 0 23.9157 0 23.9157C1.78776 23.2509 3.06511 23.7041 3.06511 23.7041ZM9.75273 23.1376L7.78576 27.4623L10.5263 25.3781C10.3282 24.5547 10.0615 23.8003 9.75273 23.1376ZM30.1881 41.983C30.1881 41.983 24.0315 39.6735 8.71522 32.2226L17.8433 40.5347H17.8473C18.6647 40.1952 19.2402 39.9541 20.3787 40.619L20.3115 40.2897C21.5023 40.6427 27.7024 42.7339 30.1881 41.983ZM15.3659 41.3959C15.5531 41.8069 15.6172 42.138 15.6172 42.3997C15.6146 42.7339 15.4841 42.9869 15.3901 43.1357C15.3391 43.2122 15.2443 43.3154 15.243 43.3154L15.5162 43.6899C15.5456 43.6711 16.0793 43.2679 16.0793 42.3997C16.0793 42.062 15.9985 41.6624 15.7854 41.2009L15.3659 41.3959ZM9.87089 42.3931C10.3053 42.4621 10.7011 42.4985 10.7011 42.4985L10.7213 42.2689C10.7213 42.2689 10.3339 42.2346 9.90867 42.1657L9.87089 42.3931ZM9.55902 22.7446C9.31348 22.2813 9.04202 21.8729 8.75475 21.5338L6.30811 23.3251C5.32023 23.8468 4.79928 23.1328 4.79928 23.1328C4.98025 23.2878 5.2214 23.3835 5.48846 23.3835C6.06916 23.3835 6.53564 22.9259 6.5374 22.3686C6.5374 22.2277 6.50885 22.0929 6.4557 21.9743C6.36521 21.7692 6.20489 21.6006 6.0103 21.493L6.01469 21.4917C6.01469 21.4917 5.79858 21.3665 5.84426 21.1628C5.89038 20.9559 6.27341 20.5567 6.27341 20.5567L6.27121 20.5585L7.47345 19.3368L7.49146 19.3148L8.58256 18.206L9.11098 17.6689C9.21025 17.5613 9.26911 17.4906 9.26911 17.4906L7.84725 18.0967C7.84725 18.0967 7.82002 18.0813 7.95794 17.827C8.09543 17.575 8.42838 17.1103 8.42838 17.1103L5.78891 18.9943C5.94133 18.2548 7.59029 16.0406 7.59029 16.0406L5.84821 17.6347C5.73137 17.0792 6.75 14.9682 6.75 14.9682C6.10869 15.6036 5.64703 16.301 5.64703 16.301C5.64703 15.6919 6.10869 14.8206 6.10869 14.8206C3.99325 16.9364 3.40597 19.584 3.25838 20.569C2.95178 20.7605 3.14022 20.5273 2.99395 20.8791C1.5734 21.28 0.767375 22.5469 0.584206 22.8618C1.73637 21.4403 3.18678 21.5821 3.18678 21.5821C3.18678 21.5821 4.91875 24.7817 4.16543 24.5235C3.40597 24.2605 3.76967 25.5331 3.76967 25.5331L2.35264 24.9223C2.58632 25.3847 3.04622 26.4738 2.78223 27.6068C2.49056 28.0498 2.2011 28.59 1.94501 29.2557L2.42995 29.1745C2.52483 28.9716 2.61883 28.7867 2.71326 28.6098C2.72688 28.5869 2.74138 28.565 2.75148 28.5426C2.77037 28.5052 2.79145 28.4692 2.81429 28.4319C2.82571 28.4099 2.83933 28.3858 2.85119 28.3647C2.8714 28.3305 2.88897 28.2958 2.91137 28.2615C2.92498 28.2374 2.9386 28.2172 2.94827 28.1961C2.97023 28.1618 2.98868 28.1267 3.0124 28.0946C3.02338 28.0731 3.03436 28.0547 3.04622 28.0375C3.06686 28.0029 3.0897 27.9686 3.11079 27.9352C3.12045 27.9168 3.13056 27.8997 3.14505 27.8825C3.16482 27.8478 3.18942 27.8136 3.21401 27.7793C3.22412 27.7631 3.23027 27.7477 3.24125 27.735C3.27068 27.6893 3.30274 27.645 3.33349 27.6019C3.33349 27.6002 3.337 27.5971 3.337 27.5953C3.36775 27.5483 3.39982 27.5062 3.43056 27.4623C3.44067 27.4517 3.45033 27.4372 3.45956 27.4249C3.4824 27.3933 3.50348 27.3657 3.52588 27.3345C3.53774 27.3178 3.54872 27.3055 3.56278 27.2901C3.57947 27.2655 3.59748 27.2401 3.61593 27.2146C3.63174 27.1992 3.6436 27.1839 3.65458 27.1676C3.67171 27.1456 3.68928 27.1246 3.70642 27.1035C3.71915 27.0881 3.73541 27.0728 3.74683 27.0556C3.76528 27.0345 3.77889 27.0165 3.79471 26.9972C3.80964 26.9818 3.82106 26.966 3.83424 26.9507C3.85049 26.9313 3.86586 26.9129 3.88256 26.8971C3.89354 26.8817 3.90759 26.8672 3.91945 26.8527C3.93483 26.833 3.95108 26.818 3.9625 26.8009C3.97656 26.7886 3.98798 26.7715 4.00159 26.7592C4.01653 26.7438 4.02927 26.7298 4.04552 26.7135C4.05694 26.6977 4.06836 26.6889 4.07978 26.6749C4.09647 26.6595 4.10877 26.6459 4.12371 26.6288C4.13293 26.62 4.14655 26.6059 4.15797 26.5919C4.16895 26.5787 4.18344 26.5647 4.1997 26.5524C4.20848 26.5427 4.21771 26.5322 4.22957 26.5216C4.24274 26.5071 4.25768 26.4909 4.27042 26.4786C4.28228 26.4711 4.28843 26.4601 4.29809 26.454C4.32093 26.4307 4.33938 26.4114 4.36002 26.3912C4.37232 26.3851 4.37847 26.3771 4.3877 26.3692C4.39692 26.3569 4.41054 26.346 4.42196 26.3359C4.42855 26.3271 4.44085 26.3187 4.44744 26.3113C4.45886 26.3016 4.47072 26.2928 4.4773 26.2819C4.48916 26.277 4.49356 26.2687 4.50498 26.2647C4.51201 26.2533 4.52343 26.2472 4.53353 26.2393C4.53968 26.2327 4.54627 26.2239 4.5533 26.2191C4.56252 26.2129 4.56911 26.205 4.57877 26.198C4.58492 26.1958 4.59239 26.1874 4.59854 26.1782C4.60601 26.1773 4.61347 26.1686 4.61962 26.1637C4.62709 26.1598 4.63104 26.1532 4.63807 26.1466C4.64773 26.144 4.65169 26.1391 4.65652 26.1343C4.66311 26.129 4.6675 26.1268 4.67145 26.1207C4.67716 26.1185 4.68419 26.1119 4.68858 26.1097C4.69561 26.1084 4.69781 26.1014 4.70001 26.0996C4.7044 26.0965 4.71187 26.0935 4.7167 26.0908C4.7167 26.086 4.72065 26.0842 4.72285 26.0842C4.72548 26.0777 4.73031 26.0777 4.73471 26.075C4.73471 26.075 4.73998 26.0719 4.73998 26.0702C4.74393 26.0671 4.74613 26.0671 4.7514 26.0654C4.7514 26.0623 4.75316 26.0623 4.75316 26.0623L4.7167 26.2327L4.27744 28.2958C5.94309 26.2327 8.40247 23.8389 9.55902 22.7446ZM4.66574 22.5298L4.85638 22.467C4.86077 22.4929 4.87263 22.5175 4.88186 22.5377C4.98508 22.7893 5.22316 22.943 5.4766 22.943C5.55743 22.943 5.63561 22.9307 5.71073 22.8974C5.83723 22.846 5.93826 22.7547 6.00547 22.6479L5.8078 22.5298C5.83284 22.4754 5.84426 22.4139 5.84426 22.3502C5.84426 22.2764 5.82581 22.2075 5.79858 22.1434L6.23168 21.9958C6.38849 22.4565 6.16799 22.9492 5.73401 23.0981C5.30266 23.2456 4.82387 22.9949 4.66574 22.5298Z" fill="black"/>
</g>
<g id="g76">
<path id="path78" d="M44.7398 25.9945C44.4477 25.9163 44.011 25.8733 43.4431 25.8733H42.2097V32.8421L42.3406 32.7507L43.3548 32.0358L43.3908 32.0095V30.0377H43.7782C44.4938 30.0377 45.0745 29.8467 45.501 29.476C45.931 29.0988 46.1476 28.5868 46.1476 27.95C46.1476 27.3537 45.9442 26.8544 45.544 26.4609C45.3139 26.2343 45.045 26.0771 44.7398 25.9945ZM43.7128 29.0334H43.3877V26.897H43.7523C44.684 26.897 45.1531 27.2421 45.1531 27.9307C45.1531 28.6658 44.6708 29.0334 43.7128 29.0334ZM51.3 29.8704C51.7076 29.7553 52.0454 29.5349 52.3041 29.2104C52.5896 28.856 52.7315 28.4225 52.7315 27.9307C52.7315 27.3005 52.5014 26.7819 52.0485 26.3955C51.6417 26.0512 50.9749 25.8733 50.0692 25.8733H48.7993V32.8421L48.9272 32.7507L49.9449 32.0358L49.9809 32.0095V30.0144H50.0367L51.9338 32.7314L51.9795 32.7999L52.0485 32.7507L52.8624 32.1632L52.9314 32.114L52.8822 32.0455L51.3 29.8704ZM49.9809 29.0334V28.964V26.9962V26.897H50.3451C51.2772 26.897 51.7467 27.2421 51.7467 27.9307C51.7467 28.6658 51.2644 29.0334 50.3055 29.0334H49.9809ZM33.5915 26.0801C33.1909 25.9427 32.6427 25.8733 31.9632 25.8733H30.4706V32.7635H31.9474C32.6326 32.7635 33.1707 32.7015 33.552 32.5733C33.9557 32.4455 34.3519 32.2159 34.723 31.8913C35.4583 31.2379 35.8357 30.3754 35.8357 29.3184C35.8357 28.2719 35.4746 27.409 34.7661 26.763C34.4147 26.4442 34.0211 26.215 33.5915 26.0801ZM33.9227 31.0416C33.6899 31.2506 33.4242 31.4087 33.1312 31.5036C32.8435 31.5989 32.4692 31.645 32.0256 31.645H31.6518V26.9962H32.0256C32.8628 26.9962 33.5059 27.196 33.9289 27.5868C34.405 28.0295 34.6413 28.6096 34.6413 29.3184C34.6413 30.0241 34.4019 30.6011 33.9227 31.0416ZM26.1677 26.8675C26.6034 26.8675 27.0339 26.9922 27.4538 27.2386L27.5268 27.2808L27.5659 27.2087L28.0583 26.3594L28.1009 26.2874L28.0288 26.2444C27.4538 25.9133 26.8499 25.746 26.2393 25.746C25.1109 25.746 24.1792 26.1684 23.4703 27.0054C22.8926 27.6914 22.6001 28.4787 22.6001 29.3518C22.6001 30.3223 22.9515 31.1694 23.6376 31.858C24.3329 32.5408 25.1798 32.8882 26.1611 32.8882C26.8103 32.8882 27.438 32.7174 28.0288 32.3832L28.0706 32.3568V32.2879L28.0613 32.269L27.5659 31.4118L27.5228 31.3371L27.4477 31.3863C27.3102 31.4746 27.1745 31.5466 27.0502 31.5989C26.8103 31.7108 26.5156 31.7662 26.1703 31.7662C25.5084 31.7662 24.9404 31.5299 24.4805 31.0635C24.0242 30.5985 23.7914 30.0175 23.7914 29.3382C23.7914 28.6496 24.0242 28.0585 24.4805 27.5868C24.9374 27.1069 25.5044 26.8675 26.1677 26.8675ZM103.837 26.9962L103.86 26.9725L104.795 26.0178L104.936 25.8733H100.942V32.7635H103.86L103.883 32.7406L104.798 31.7859L104.933 31.645H102.123V29.5055H102.99L103.013 29.4796L103.962 28.5284L104.102 28.3839H102.123V26.9962H103.837ZM83.6237 26.9962H85.169V32.8421L85.3008 32.7507L86.3146 32.0358L86.3511 32.0095V26.9962H87.8937V25.8733H83.6237V26.9962ZM58.6386 25.7486C57.6503 25.7486 56.7907 26.1003 56.0887 26.7924C55.3798 27.4845 55.0218 28.325 55.0218 29.289C55.0218 30.3846 55.4154 31.2871 56.1906 31.9664C56.8926 32.5773 57.6995 32.8882 58.5859 32.8882C59.5839 32.8882 60.4505 32.5373 61.1555 31.8487C61.8614 31.1628 62.2189 30.3161 62.2189 29.3289C62.2189 28.3505 61.8645 27.4973 61.1621 26.8017C60.4637 26.103 59.6164 25.7486 58.6386 25.7486ZM60.3253 31.0613C59.8558 31.5299 59.2751 31.7662 58.5955 31.7662C57.9753 31.7662 57.414 31.533 56.9387 31.0706C56.4559 30.6117 56.213 30.0175 56.213 29.2995C56.213 28.6202 56.4494 28.0387 56.9119 27.5763C57.3749 27.1069 57.9525 26.8675 58.6254 26.8675C59.3014 26.8675 59.8755 27.1069 60.3324 27.5763C60.7949 28.0427 61.0277 28.6294 61.0277 29.3184C61.0277 29.9977 60.7914 30.5853 60.3253 31.0613ZM111.986 26.763C111.634 26.4442 111.238 26.215 110.807 26.0801C110.407 25.9427 109.862 25.8733 109.18 25.8733H107.686V32.7635H109.163C109.849 32.7635 110.391 32.7015 110.771 32.5733C111.175 32.4455 111.569 32.2159 111.94 31.8913C112.678 31.2379 113.052 30.3754 113.052 29.3184C113.052 28.2719 112.695 27.409 111.986 26.763ZM111.142 31.0416C110.906 31.2506 110.64 31.4087 110.351 31.5036C110.059 31.5989 109.688 31.645 109.242 31.645H108.868V26.9962H109.242C110.082 26.9962 110.722 27.196 111.149 27.5868C111.622 28.0295 111.86 28.6096 111.86 29.3184C111.86 30.0241 111.622 30.6011 111.142 31.0416ZM96.4003 29.8704C96.8066 29.7553 97.1448 29.5349 97.4044 29.2104C97.6899 28.856 97.8309 28.4225 97.8309 27.9307C97.8309 27.3005 97.6012 26.7819 97.1483 26.3955C96.7376 26.0512 96.0752 25.8733 95.169 25.8733H93.8957V32.8421L94.0274 32.7507L95.0447 32.0358L95.0808 32.0095V30.0144H95.1361L97.0297 32.7314L97.0798 32.7999L97.1483 32.7507L97.9618 32.1632L98.0273 32.114L97.9816 32.0455L96.4003 29.8704ZM95.0808 29.0334V26.897H95.4414C96.377 26.897 96.8435 27.2421 96.8435 27.9307C96.8435 28.6658 96.3638 29.0334 95.4023 29.0334H95.0808ZM80.3939 25.8997L77.92 28.4357V25.7978L77.7883 25.8931L76.7745 26.6054L76.738 26.6313V32.8421L76.8729 32.7507L77.8867 32.0358L77.92 32.0095V29.9323L78.0408 29.8137L80.4036 32.734L80.4497 32.7929L80.5156 32.7507L81.3853 32.1632L81.4608 32.1109L81.4016 32.038L78.8851 29.0066L81.8707 26.0178L82.0121 25.8733H80.4207L80.3939 25.8997ZM65.8586 26.6084L65.8221 26.6348V30.306C65.8221 30.8615 65.7633 31.2506 65.6486 31.4671C65.5467 31.6709 65.3662 31.7662 65.0974 31.7662C64.9006 31.7662 64.6871 31.6911 64.4574 31.5369L64.3818 31.4878L64.3392 31.5624L63.8372 32.4288L63.7976 32.5009L63.8666 32.5439C64.247 32.7705 64.6603 32.8882 65.0974 32.8882C65.6816 32.8882 66.1568 32.6748 66.5113 32.262C66.6923 32.0525 66.8206 31.7925 66.8992 31.4908C66.9712 31.2287 67.0103 30.8409 67.0103 30.3095V25.7978L66.8759 25.8931L65.8586 26.6084ZM73.1216 26.9962L73.1475 26.9725L74.0827 26.0178L74.2206 25.8733H70.2305V32.7635H73.1445L73.1708 32.7406L74.0827 31.7859L74.218 31.645H71.4121V29.5055H72.2748L72.2976 29.4796L73.2459 28.5284L73.3874 28.3839H71.4121V26.9962H73.1216Z" fill="black"/>
</g>
<g id="g80">
<path id="path82" d="M115.045 28.1548C114.381 28.1548 113.84 27.6142 113.84 26.9502C113.84 26.2796 114.381 25.7456 115.045 25.7456C115.716 25.7456 116.25 26.2796 116.25 26.9502C116.25 27.6142 115.716 28.1548 115.045 28.1548ZM115.045 25.9266C114.477 25.9266 114.022 26.3763 114.022 26.9502C114.022 27.5123 114.477 27.9725 115.045 27.9725C115.614 27.9725 116.068 27.5123 116.068 26.9502C116.068 26.3763 115.614 25.9266 115.045 25.9266ZM115.375 27.6427L115.017 27.0978H114.778V27.6427H114.585V26.2625H115.148C115.381 26.2625 115.596 26.4268 115.596 26.6832C115.596 26.9897 115.323 27.0916 115.245 27.0916L115.614 27.6427H115.375ZM115.148 26.4333H114.778V26.9212H115.148C115.267 26.9212 115.397 26.8255 115.397 26.6832C115.397 26.5295 115.267 26.4333 115.148 26.4333Z" fill="black"/>
</g>
</g>
</g>
</g>
</g>
<defs>
<clipPath id="clip0_21_33">
<rect width="116.25" height="50" fill="white"/>
</clipPath>
</defs>
</svg>
