<svg width="44" height="44" viewBox="0 0 44 44" fill="none" xmlns="http://www.w3.org/2000/svg">
<g id="hp-2 logo" clip-path="url(#clip0_24_438)">
<path id="Vector" d="M21.9264 44C21.7085 44 21.4914 43.9961 21.2747 43.9898L25.7557 31.6333H31.9224C33.0048 31.6333 34.193 30.7985 34.5632 29.7784L39.4244 16.3802C40.2198 14.1866 38.9676 12.392 36.6413 12.392H28.0862L20.9083 32.1834H20.9055L16.836 43.4027C7.18163 41.0999 0.000488281 32.3917 0.000488281 22C0.000488281 11.908 6.77316 3.40389 16.0067 0.812167L11.8078 12.392H11.8066L4.82622 31.6333L9.47299 31.6338L15.4092 15.2835H18.9016L12.9654 31.6338L17.6105 31.6346L23.1425 16.3802C23.9383 14.1866 22.686 12.392 20.3619 12.392H16.4558L20.9408 0.0231204C21.2676 0.00855555 21.5959 0 21.9262 0C34.0356 0 43.8521 9.84968 43.8521 22C43.8521 34.1502 34.0356 44 21.9262 44H21.9264ZM35.1928 15.2717H31.7014L26.812 28.7322H30.3035L35.1928 15.2717Z" fill="black"/>
</g>
<defs>
<clipPath id="clip0_24_438">
<rect width="43.8519" height="44" fill="white"/>
</clipPath>
</defs>
</svg>
