<svg width="62" height="62" viewBox="0 0 62 62" fill="none" xmlns="http://www.w3.org/2000/svg">
<path id="Vector" d="M54.1879 22.6806L54.1539 23.067L54.4025 23.3649L60.7763 31L54.4025 38.6351L54.1539 38.933L54.1879 39.3194L55.0749 49.4054L45.6907 51.6385L45.2922 51.7333L45.0905 52.0899L40.1859 60.7623L31.3854 56.8033L30.9987 56.6293L30.6124 56.8043L21.813 60.7899L16.9095 52.1195L16.7078 51.7629L16.3093 51.668L6.92487 49.4349L7.81216 39.3192L7.84605 38.9329L7.59751 38.6351L1.2228 30.9989L7.59856 23.3341L7.84597 23.0366L7.81216 22.6512L6.92507 12.5378L16.3068 10.3326L16.7071 10.2385L16.9095 9.88053L21.8141 1.20819L30.6146 5.16717L31 5.34055L31.3854 5.16717L40.1848 1.20866L45.0899 9.90896L45.2914 10.2665L45.6907 10.3615L55.0749 12.5946L54.1879 22.6806Z" stroke="#F8F200" stroke-width="1.87879"/>
</svg>
